<mxfile host="Electron" agent="Mozilla/5.0 (Windows NT 10.0; Win64; x64) AppleWebKit/537.36 (KHTML, like Gecko) draw.io/24.7.17 Chrome/128.0.6613.36 Electron/32.0.1 Safari/537.36" version="24.7.17">
  <diagram name="StrÃ¡nka-1" id="HtR_30fvjnzo9S2--Yoa">
    <mxGraphModel dx="1434" dy="2013" grid="1" gridSize="10" guides="1" tooltips="1" connect="1" arrows="1" fold="1" page="1" pageScale="1" pageWidth="827" pageHeight="1169" math="0" shadow="0">
      <root>
        <mxCell id="0" />
        <mxCell id="1" parent="0" />
        <mxCell id="8qwPlh9qfdXBfqdP9BY3-44" style="edgeStyle=orthogonalEdgeStyle;rounded=0;orthogonalLoop=1;jettySize=auto;html=1;entryX=0;entryY=0.5;entryDx=0;entryDy=0;" parent="1" source="8qwPlh9qfdXBfqdP9BY3-1" target="8qwPlh9qfdXBfqdP9BY3-24" edge="1">
          <mxGeometry relative="1" as="geometry" />
        </mxCell>
        <mxCell id="AM9VBK2DPDKisSMMoRg6-6" style="edgeStyle=orthogonalEdgeStyle;rounded=0;orthogonalLoop=1;jettySize=auto;html=1;entryX=0.5;entryY=0;entryDx=0;entryDy=0;" parent="1" source="8qwPlh9qfdXBfqdP9BY3-1" target="AM9VBK2DPDKisSMMoRg6-3" edge="1">
          <mxGeometry relative="1" as="geometry" />
        </mxCell>
        <mxCell id="AM9VBK2DPDKisSMMoRg6-8" style="edgeStyle=orthogonalEdgeStyle;rounded=0;orthogonalLoop=1;jettySize=auto;html=1;exitX=0.75;exitY=1;exitDx=0;exitDy=0;entryX=0;entryY=0.5;entryDx=0;entryDy=0;" parent="1" source="8qwPlh9qfdXBfqdP9BY3-1" target="AM9VBK2DPDKisSMMoRg6-4" edge="1">
          <mxGeometry relative="1" as="geometry" />
        </mxCell>
        <mxCell id="0CBtYzVkp15g_8uijVB_-4" style="edgeStyle=orthogonalEdgeStyle;rounded=0;orthogonalLoop=1;jettySize=auto;html=1;exitX=0;exitY=0.75;exitDx=0;exitDy=0;entryX=1;entryY=0.5;entryDx=0;entryDy=0;" edge="1" parent="1" source="8qwPlh9qfdXBfqdP9BY3-1" target="0CBtYzVkp15g_8uijVB_-1">
          <mxGeometry relative="1" as="geometry" />
        </mxCell>
        <mxCell id="8qwPlh9qfdXBfqdP9BY3-1" value="Mikrokontroler" style="rounded=0;whiteSpace=wrap;html=1;" parent="1" vertex="1">
          <mxGeometry x="460" y="300" width="120" height="60" as="geometry" />
        </mxCell>
        <mxCell id="8qwPlh9qfdXBfqdP9BY3-7" value="" style="edgeStyle=orthogonalEdgeStyle;rounded=0;orthogonalLoop=1;jettySize=auto;html=1;" parent="1" source="8qwPlh9qfdXBfqdP9BY3-2" target="8qwPlh9qfdXBfqdP9BY3-3" edge="1">
          <mxGeometry relative="1" as="geometry" />
        </mxCell>
        <mxCell id="8qwPlh9qfdXBfqdP9BY3-2" value="AC&lt;div&gt;230&lt;/div&gt;" style="ellipse;whiteSpace=wrap;html=1;aspect=fixed;" parent="1" vertex="1">
          <mxGeometry x="60" y="290" width="80" height="80" as="geometry" />
        </mxCell>
        <mxCell id="8qwPlh9qfdXBfqdP9BY3-5" value="" style="edgeStyle=orthogonalEdgeStyle;rounded=0;orthogonalLoop=1;jettySize=auto;html=1;" parent="1" source="8qwPlh9qfdXBfqdP9BY3-3" target="8qwPlh9qfdXBfqdP9BY3-4" edge="1">
          <mxGeometry relative="1" as="geometry" />
        </mxCell>
        <mxCell id="8qwPlh9qfdXBfqdP9BY3-8" value="" style="edgeStyle=orthogonalEdgeStyle;rounded=0;orthogonalLoop=1;jettySize=auto;html=1;" parent="1" source="8qwPlh9qfdXBfqdP9BY3-3" target="8qwPlh9qfdXBfqdP9BY3-1" edge="1">
          <mxGeometry relative="1" as="geometry" />
        </mxCell>
        <mxCell id="AM9VBK2DPDKisSMMoRg6-15" style="edgeStyle=orthogonalEdgeStyle;rounded=0;orthogonalLoop=1;jettySize=auto;html=1;exitX=0;exitY=0.25;exitDx=0;exitDy=0;entryX=0;entryY=0.5;entryDx=0;entryDy=0;" parent="1" source="8qwPlh9qfdXBfqdP9BY3-3" target="AM9VBK2DPDKisSMMoRg6-19" edge="1">
          <mxGeometry relative="1" as="geometry">
            <mxPoint x="270" y="-150" as="targetPoint" />
            <Array as="points">
              <mxPoint x="270" y="310" />
              <mxPoint x="270" y="-120" />
            </Array>
          </mxGeometry>
        </mxCell>
        <mxCell id="0CBtYzVkp15g_8uijVB_-2" value="" style="edgeStyle=orthogonalEdgeStyle;rounded=0;orthogonalLoop=1;jettySize=auto;html=1;" edge="1" parent="1" source="8qwPlh9qfdXBfqdP9BY3-3" target="0CBtYzVkp15g_8uijVB_-1">
          <mxGeometry relative="1" as="geometry" />
        </mxCell>
        <mxCell id="8qwPlh9qfdXBfqdP9BY3-3" value="zdroj 230V to 12V" style="whiteSpace=wrap;html=1;aspect=fixed;" parent="1" vertex="1">
          <mxGeometry x="290" y="290" width="80" height="80" as="geometry" />
        </mxCell>
        <mxCell id="8qwPlh9qfdXBfqdP9BY3-49" style="edgeStyle=orthogonalEdgeStyle;rounded=0;orthogonalLoop=1;jettySize=auto;html=1;entryX=0.5;entryY=0;entryDx=0;entryDy=0;" parent="1" source="8qwPlh9qfdXBfqdP9BY3-4" target="8qwPlh9qfdXBfqdP9BY3-13" edge="1">
          <mxGeometry relative="1" as="geometry">
            <Array as="points">
              <mxPoint x="595" y="180" />
            </Array>
          </mxGeometry>
        </mxCell>
        <mxCell id="8qwPlh9qfdXBfqdP9BY3-4" value="zdroj 12V to 32V" style="whiteSpace=wrap;html=1;aspect=fixed;" parent="1" vertex="1">
          <mxGeometry x="290" y="150" width="80" height="80" as="geometry" />
        </mxCell>
        <mxCell id="8qwPlh9qfdXBfqdP9BY3-9" value="12V" style="text;html=1;align=center;verticalAlign=middle;whiteSpace=wrap;rounded=0;" parent="1" vertex="1">
          <mxGeometry x="384" y="300" width="60" height="30" as="geometry" />
        </mxCell>
        <mxCell id="8qwPlh9qfdXBfqdP9BY3-10" value="12V" style="text;html=1;align=center;verticalAlign=middle;whiteSpace=wrap;rounded=0;rotation=-90;" parent="1" vertex="1">
          <mxGeometry x="280" y="250" width="60" height="30" as="geometry" />
        </mxCell>
        <mxCell id="8qwPlh9qfdXBfqdP9BY3-31" value="" style="edgeStyle=orthogonalEdgeStyle;rounded=0;orthogonalLoop=1;jettySize=auto;html=1;" parent="1" source="8qwPlh9qfdXBfqdP9BY3-13" target="8qwPlh9qfdXBfqdP9BY3-22" edge="1">
          <mxGeometry relative="1" as="geometry" />
        </mxCell>
        <mxCell id="8qwPlh9qfdXBfqdP9BY3-13" value="DCP1" style="rounded=0;whiteSpace=wrap;html=1;" parent="1" vertex="1">
          <mxGeometry x="570" y="200" width="50" height="30" as="geometry" />
        </mxCell>
        <mxCell id="8qwPlh9qfdXBfqdP9BY3-32" value="" style="edgeStyle=orthogonalEdgeStyle;rounded=0;orthogonalLoop=1;jettySize=auto;html=1;" parent="1" source="8qwPlh9qfdXBfqdP9BY3-20" target="8qwPlh9qfdXBfqdP9BY3-21" edge="1">
          <mxGeometry relative="1" as="geometry" />
        </mxCell>
        <mxCell id="8qwPlh9qfdXBfqdP9BY3-67" style="edgeStyle=orthogonalEdgeStyle;rounded=0;orthogonalLoop=1;jettySize=auto;html=1;exitX=0.5;exitY=1;exitDx=0;exitDy=0;entryX=0;entryY=0.5;entryDx=0;entryDy=0;" parent="1" source="8qwPlh9qfdXBfqdP9BY3-20" target="8qwPlh9qfdXBfqdP9BY3-62" edge="1">
          <mxGeometry relative="1" as="geometry">
            <Array as="points">
              <mxPoint x="595" y="170" />
              <mxPoint x="745" y="170" />
              <mxPoint x="745" y="140" />
            </Array>
          </mxGeometry>
        </mxCell>
        <mxCell id="8qwPlh9qfdXBfqdP9BY3-20" value="DCP3" style="rounded=0;whiteSpace=wrap;html=1;" parent="1" vertex="1">
          <mxGeometry x="570" y="130" width="50" height="30" as="geometry" />
        </mxCell>
        <mxCell id="8qwPlh9qfdXBfqdP9BY3-68" style="edgeStyle=orthogonalEdgeStyle;rounded=0;orthogonalLoop=1;jettySize=auto;html=1;exitX=0.5;exitY=1;exitDx=0;exitDy=0;" parent="1" source="8qwPlh9qfdXBfqdP9BY3-21" edge="1">
          <mxGeometry relative="1" as="geometry">
            <mxPoint x="700" y="170" as="targetPoint" />
          </mxGeometry>
        </mxCell>
        <mxCell id="8qwPlh9qfdXBfqdP9BY3-21" value="DCP4" style="rounded=0;whiteSpace=wrap;html=1;" parent="1" vertex="1">
          <mxGeometry x="675" y="130" width="50" height="30" as="geometry" />
        </mxCell>
        <mxCell id="8qwPlh9qfdXBfqdP9BY3-22" value="DCP2" style="rounded=0;whiteSpace=wrap;html=1;" parent="1" vertex="1">
          <mxGeometry x="675" y="200" width="50" height="30" as="geometry" />
        </mxCell>
        <mxCell id="8qwPlh9qfdXBfqdP9BY3-30" value="" style="edgeStyle=orthogonalEdgeStyle;rounded=0;orthogonalLoop=1;jettySize=auto;html=1;" parent="1" source="8qwPlh9qfdXBfqdP9BY3-23" target="8qwPlh9qfdXBfqdP9BY3-26" edge="1">
          <mxGeometry relative="1" as="geometry" />
        </mxCell>
        <mxCell id="8qwPlh9qfdXBfqdP9BY3-23" value="DCP5" style="rounded=0;whiteSpace=wrap;html=1;" parent="1" vertex="1">
          <mxGeometry x="570" y="60" width="50" height="30" as="geometry" />
        </mxCell>
        <mxCell id="8qwPlh9qfdXBfqdP9BY3-29" value="" style="edgeStyle=orthogonalEdgeStyle;rounded=0;orthogonalLoop=1;jettySize=auto;html=1;" parent="1" source="8qwPlh9qfdXBfqdP9BY3-24" target="8qwPlh9qfdXBfqdP9BY3-25" edge="1">
          <mxGeometry relative="1" as="geometry" />
        </mxCell>
        <mxCell id="8qwPlh9qfdXBfqdP9BY3-63" style="edgeStyle=orthogonalEdgeStyle;rounded=0;orthogonalLoop=1;jettySize=auto;html=1;exitX=0.5;exitY=1;exitDx=0;exitDy=0;entryX=0;entryY=0.5;entryDx=0;entryDy=0;" parent="1" source="8qwPlh9qfdXBfqdP9BY3-24" target="8qwPlh9qfdXBfqdP9BY3-61" edge="1">
          <mxGeometry relative="1" as="geometry">
            <Array as="points">
              <mxPoint x="595" y="30" />
              <mxPoint x="745" y="30" />
              <mxPoint x="745" y="20" />
            </Array>
          </mxGeometry>
        </mxCell>
        <mxCell id="8qwPlh9qfdXBfqdP9BY3-24" value="DCP7" style="rounded=0;whiteSpace=wrap;html=1;" parent="1" vertex="1">
          <mxGeometry x="570" y="-10" width="50" height="30" as="geometry" />
        </mxCell>
        <mxCell id="8qwPlh9qfdXBfqdP9BY3-64" style="edgeStyle=orthogonalEdgeStyle;rounded=0;orthogonalLoop=1;jettySize=auto;html=1;exitX=0.5;exitY=1;exitDx=0;exitDy=0;" parent="1" source="8qwPlh9qfdXBfqdP9BY3-25" edge="1">
          <mxGeometry relative="1" as="geometry">
            <mxPoint x="700" y="30" as="targetPoint" />
          </mxGeometry>
        </mxCell>
        <mxCell id="8qwPlh9qfdXBfqdP9BY3-25" value="DCP8" style="rounded=0;whiteSpace=wrap;html=1;" parent="1" vertex="1">
          <mxGeometry x="675" y="-10" width="50" height="30" as="geometry" />
        </mxCell>
        <mxCell id="8qwPlh9qfdXBfqdP9BY3-66" style="edgeStyle=orthogonalEdgeStyle;rounded=0;orthogonalLoop=1;jettySize=auto;html=1;exitX=0.5;exitY=1;exitDx=0;exitDy=0;" parent="1" source="8qwPlh9qfdXBfqdP9BY3-26" edge="1">
          <mxGeometry relative="1" as="geometry">
            <mxPoint x="700" y="100" as="targetPoint" />
          </mxGeometry>
        </mxCell>
        <mxCell id="8qwPlh9qfdXBfqdP9BY3-26" value="DCP6" style="rounded=0;whiteSpace=wrap;html=1;" parent="1" vertex="1">
          <mxGeometry x="675" y="60" width="50" height="30" as="geometry" />
        </mxCell>
        <mxCell id="8qwPlh9qfdXBfqdP9BY3-46" value="" style="endArrow=classic;html=1;rounded=0;" parent="1" edge="1">
          <mxGeometry width="50" height="50" relative="1" as="geometry">
            <mxPoint x="520" y="74.67" as="sourcePoint" />
            <mxPoint x="570" y="74.67" as="targetPoint" />
          </mxGeometry>
        </mxCell>
        <mxCell id="8qwPlh9qfdXBfqdP9BY3-47" value="" style="endArrow=classic;html=1;rounded=0;" parent="1" edge="1">
          <mxGeometry width="50" height="50" relative="1" as="geometry">
            <mxPoint x="520" y="144.67000000000002" as="sourcePoint" />
            <mxPoint x="570" y="144.67000000000002" as="targetPoint" />
          </mxGeometry>
        </mxCell>
        <mxCell id="8qwPlh9qfdXBfqdP9BY3-48" value="" style="endArrow=classic;html=1;rounded=0;" parent="1" edge="1">
          <mxGeometry width="50" height="50" relative="1" as="geometry">
            <mxPoint x="520" y="214.67000000000002" as="sourcePoint" />
            <mxPoint x="570" y="214.67000000000002" as="targetPoint" />
          </mxGeometry>
        </mxCell>
        <mxCell id="8qwPlh9qfdXBfqdP9BY3-52" style="edgeStyle=orthogonalEdgeStyle;rounded=0;orthogonalLoop=1;jettySize=auto;html=1;" parent="1" target="8qwPlh9qfdXBfqdP9BY3-22" edge="1">
          <mxGeometry relative="1" as="geometry">
            <mxPoint x="580" y="180" as="sourcePoint" />
            <mxPoint x="812.5" y="200" as="targetPoint" />
            <Array as="points">
              <mxPoint x="700" y="180" />
            </Array>
          </mxGeometry>
        </mxCell>
        <mxCell id="8qwPlh9qfdXBfqdP9BY3-53" style="edgeStyle=orthogonalEdgeStyle;rounded=0;orthogonalLoop=1;jettySize=auto;html=1;entryX=0.5;entryY=0;entryDx=0;entryDy=0;" parent="1" edge="1">
          <mxGeometry relative="1" as="geometry">
            <mxPoint x="400" y="110" as="sourcePoint" />
            <mxPoint x="595" y="130" as="targetPoint" />
            <Array as="points">
              <mxPoint x="595" y="110" />
            </Array>
          </mxGeometry>
        </mxCell>
        <mxCell id="8qwPlh9qfdXBfqdP9BY3-54" style="edgeStyle=orthogonalEdgeStyle;rounded=0;orthogonalLoop=1;jettySize=auto;html=1;" parent="1" edge="1">
          <mxGeometry relative="1" as="geometry">
            <mxPoint x="580" y="110" as="sourcePoint" />
            <mxPoint x="700" y="130" as="targetPoint" />
            <Array as="points">
              <mxPoint x="700" y="110" />
            </Array>
          </mxGeometry>
        </mxCell>
        <mxCell id="8qwPlh9qfdXBfqdP9BY3-55" style="edgeStyle=orthogonalEdgeStyle;rounded=0;orthogonalLoop=1;jettySize=auto;html=1;entryX=0.5;entryY=0;entryDx=0;entryDy=0;" parent="1" edge="1">
          <mxGeometry relative="1" as="geometry">
            <mxPoint x="400" y="40" as="sourcePoint" />
            <mxPoint x="595" y="60" as="targetPoint" />
            <Array as="points">
              <mxPoint x="595" y="40" />
            </Array>
          </mxGeometry>
        </mxCell>
        <mxCell id="8qwPlh9qfdXBfqdP9BY3-56" style="edgeStyle=orthogonalEdgeStyle;rounded=0;orthogonalLoop=1;jettySize=auto;html=1;" parent="1" edge="1">
          <mxGeometry relative="1" as="geometry">
            <mxPoint x="580" y="40" as="sourcePoint" />
            <mxPoint x="700" y="60" as="targetPoint" />
            <Array as="points">
              <mxPoint x="700" y="40" />
            </Array>
          </mxGeometry>
        </mxCell>
        <mxCell id="8qwPlh9qfdXBfqdP9BY3-57" style="edgeStyle=orthogonalEdgeStyle;rounded=0;orthogonalLoop=1;jettySize=auto;html=1;entryX=0.5;entryY=0;entryDx=0;entryDy=0;" parent="1" edge="1">
          <mxGeometry relative="1" as="geometry">
            <mxPoint x="400" y="-30" as="sourcePoint" />
            <mxPoint x="595" y="-10" as="targetPoint" />
            <Array as="points">
              <mxPoint x="595" y="-30" />
            </Array>
          </mxGeometry>
        </mxCell>
        <mxCell id="8qwPlh9qfdXBfqdP9BY3-58" style="edgeStyle=orthogonalEdgeStyle;rounded=0;orthogonalLoop=1;jettySize=auto;html=1;" parent="1" edge="1">
          <mxGeometry relative="1" as="geometry">
            <mxPoint x="580" y="-30" as="sourcePoint" />
            <mxPoint x="700" y="-10" as="targetPoint" />
            <Array as="points">
              <mxPoint x="700" y="-30" />
            </Array>
          </mxGeometry>
        </mxCell>
        <mxCell id="8qwPlh9qfdXBfqdP9BY3-59" value="" style="endArrow=none;html=1;rounded=0;" parent="1" edge="1">
          <mxGeometry width="50" height="50" relative="1" as="geometry">
            <mxPoint x="400" y="180" as="sourcePoint" />
            <mxPoint x="400" y="-30" as="targetPoint" />
          </mxGeometry>
        </mxCell>
        <mxCell id="AM9VBK2DPDKisSMMoRg6-13" style="edgeStyle=orthogonalEdgeStyle;rounded=0;orthogonalLoop=1;jettySize=auto;html=1;" parent="1" source="8qwPlh9qfdXBfqdP9BY3-61" target="AM9VBK2DPDKisSMMoRg6-12" edge="1">
          <mxGeometry relative="1" as="geometry">
            <Array as="points">
              <mxPoint x="1055" y="20" />
              <mxPoint x="1055" y="50" />
            </Array>
          </mxGeometry>
        </mxCell>
        <mxCell id="8qwPlh9qfdXBfqdP9BY3-61" value="modul CC &amp;amp; CV 2" style="rounded=0;whiteSpace=wrap;html=1;" parent="1" vertex="1">
          <mxGeometry x="870" y="-10" width="120" height="60" as="geometry" />
        </mxCell>
        <mxCell id="AM9VBK2DPDKisSMMoRg6-14" style="edgeStyle=orthogonalEdgeStyle;rounded=0;orthogonalLoop=1;jettySize=auto;html=1;entryX=0;entryY=0.75;entryDx=0;entryDy=0;" parent="1" source="8qwPlh9qfdXBfqdP9BY3-62" target="AM9VBK2DPDKisSMMoRg6-12" edge="1">
          <mxGeometry relative="1" as="geometry" />
        </mxCell>
        <mxCell id="8qwPlh9qfdXBfqdP9BY3-62" value="modul CC &amp;amp; CV 1" style="rounded=0;whiteSpace=wrap;html=1;" parent="1" vertex="1">
          <mxGeometry x="870" y="110" width="120" height="60" as="geometry" />
        </mxCell>
        <mxCell id="8qwPlh9qfdXBfqdP9BY3-65" style="edgeStyle=orthogonalEdgeStyle;rounded=0;orthogonalLoop=1;jettySize=auto;html=1;exitX=0.5;exitY=1;exitDx=0;exitDy=0;entryX=0;entryY=0.833;entryDx=0;entryDy=0;entryPerimeter=0;" parent="1" source="8qwPlh9qfdXBfqdP9BY3-23" target="8qwPlh9qfdXBfqdP9BY3-61" edge="1">
          <mxGeometry relative="1" as="geometry">
            <Array as="points">
              <mxPoint x="595" y="100" />
              <mxPoint x="745" y="100" />
              <mxPoint x="745" y="40" />
            </Array>
          </mxGeometry>
        </mxCell>
        <mxCell id="8qwPlh9qfdXBfqdP9BY3-69" style="edgeStyle=orthogonalEdgeStyle;rounded=0;orthogonalLoop=1;jettySize=auto;html=1;exitX=0.5;exitY=1;exitDx=0;exitDy=0;entryX=0;entryY=0.833;entryDx=0;entryDy=0;entryPerimeter=0;" parent="1" source="8qwPlh9qfdXBfqdP9BY3-13" target="8qwPlh9qfdXBfqdP9BY3-62" edge="1">
          <mxGeometry relative="1" as="geometry">
            <Array as="points">
              <mxPoint x="595" y="250" />
              <mxPoint x="760" y="250" />
              <mxPoint x="760" y="160" />
            </Array>
          </mxGeometry>
        </mxCell>
        <mxCell id="AM9VBK2DPDKisSMMoRg6-1" value="SPI" style="text;html=1;align=center;verticalAlign=middle;whiteSpace=wrap;rounded=0;rotation=-90;" parent="1" vertex="1">
          <mxGeometry x="480" y="250" width="60" height="30" as="geometry" />
        </mxCell>
        <mxCell id="AM9VBK2DPDKisSMMoRg6-2" value="32V" style="text;html=1;align=center;verticalAlign=middle;whiteSpace=wrap;rounded=0;" parent="1" vertex="1">
          <mxGeometry x="400" y="150" width="60" height="30" as="geometry" />
        </mxCell>
        <mxCell id="AM9VBK2DPDKisSMMoRg6-3" value="Display" style="rounded=0;whiteSpace=wrap;html=1;" parent="1" vertex="1">
          <mxGeometry x="460" y="480" width="70" height="40" as="geometry" />
        </mxCell>
        <mxCell id="AM9VBK2DPDKisSMMoRg6-4" value="Enkoder1" style="rounded=0;whiteSpace=wrap;html=1;" parent="1" vertex="1">
          <mxGeometry x="600" y="425" width="75" height="40" as="geometry" />
        </mxCell>
        <mxCell id="AM9VBK2DPDKisSMMoRg6-5" value="Enkoder2" style="rounded=0;whiteSpace=wrap;html=1;" parent="1" vertex="1">
          <mxGeometry x="600" y="480" width="75" height="40" as="geometry" />
        </mxCell>
        <mxCell id="AM9VBK2DPDKisSMMoRg6-7" value="I2C" style="text;html=1;align=center;verticalAlign=middle;whiteSpace=wrap;rounded=0;rotation=-90;" parent="1" vertex="1">
          <mxGeometry x="470" y="370" width="60" height="30" as="geometry" />
        </mxCell>
        <mxCell id="AM9VBK2DPDKisSMMoRg6-9" style="edgeStyle=orthogonalEdgeStyle;rounded=0;orthogonalLoop=1;jettySize=auto;html=1;exitX=0.75;exitY=1;exitDx=0;exitDy=0;entryX=0;entryY=0.5;entryDx=0;entryDy=0;" parent="1" source="8qwPlh9qfdXBfqdP9BY3-1" target="AM9VBK2DPDKisSMMoRg6-5" edge="1">
          <mxGeometry relative="1" as="geometry">
            <mxPoint x="500" y="440" as="sourcePoint" />
            <mxPoint x="550" y="525" as="targetPoint" />
          </mxGeometry>
        </mxCell>
        <mxCell id="AM9VBK2DPDKisSMMoRg6-23" value="" style="edgeStyle=orthogonalEdgeStyle;rounded=0;orthogonalLoop=1;jettySize=auto;html=1;" parent="1" source="AM9VBK2DPDKisSMMoRg6-12" target="AM9VBK2DPDKisSMMoRg6-22" edge="1">
          <mxGeometry relative="1" as="geometry" />
        </mxCell>
        <mxCell id="AM9VBK2DPDKisSMMoRg6-25" style="edgeStyle=orthogonalEdgeStyle;rounded=0;orthogonalLoop=1;jettySize=auto;html=1;entryX=1;entryY=0.5;entryDx=0;entryDy=0;" parent="1" source="AM9VBK2DPDKisSMMoRg6-12" target="AM9VBK2DPDKisSMMoRg6-24" edge="1">
          <mxGeometry relative="1" as="geometry">
            <Array as="points">
              <mxPoint x="1240" y="70" />
              <mxPoint x="1240" y="300" />
            </Array>
          </mxGeometry>
        </mxCell>
        <mxCell id="AM9VBK2DPDKisSMMoRg6-12" value="relay module 4x" style="whiteSpace=wrap;html=1;aspect=fixed;" parent="1" vertex="1">
          <mxGeometry x="1120" y="30" width="80" height="80" as="geometry" />
        </mxCell>
        <mxCell id="AM9VBK2DPDKisSMMoRg6-16" value="12V" style="text;html=1;align=center;verticalAlign=middle;whiteSpace=wrap;rounded=0;rotation=0;" parent="1" vertex="1">
          <mxGeometry x="560" y="-150" width="60" height="30" as="geometry" />
        </mxCell>
        <mxCell id="AM9VBK2DPDKisSMMoRg6-17" value="" style="endArrow=classic;html=1;rounded=0;entryX=0.25;entryY=0;entryDx=0;entryDy=0;" parent="1" target="8qwPlh9qfdXBfqdP9BY3-62" edge="1">
          <mxGeometry width="50" height="50" relative="1" as="geometry">
            <mxPoint x="780" y="-80" as="sourcePoint" />
            <mxPoint x="777" y="90" as="targetPoint" />
            <Array as="points">
              <mxPoint x="780" y="80" />
              <mxPoint x="900" y="80" />
            </Array>
          </mxGeometry>
        </mxCell>
        <mxCell id="AM9VBK2DPDKisSMMoRg6-18" value="12V" style="text;html=1;align=center;verticalAlign=middle;whiteSpace=wrap;rounded=0;" parent="1" vertex="1">
          <mxGeometry x="800" y="55" width="60" height="30" as="geometry" />
        </mxCell>
        <mxCell id="AM9VBK2DPDKisSMMoRg6-20" style="edgeStyle=orthogonalEdgeStyle;rounded=0;orthogonalLoop=1;jettySize=auto;html=1;entryX=0.5;entryY=0;entryDx=0;entryDy=0;" parent="1" source="AM9VBK2DPDKisSMMoRg6-19" target="8qwPlh9qfdXBfqdP9BY3-61" edge="1">
          <mxGeometry relative="1" as="geometry" />
        </mxCell>
        <mxCell id="AM9VBK2DPDKisSMMoRg6-19" value="relay module 4x" style="whiteSpace=wrap;html=1;aspect=fixed;" parent="1" vertex="1">
          <mxGeometry x="740" y="-160" width="80" height="80" as="geometry" />
        </mxCell>
        <mxCell id="AM9VBK2DPDKisSMMoRg6-21" value="12V" style="text;html=1;align=center;verticalAlign=middle;whiteSpace=wrap;rounded=0;rotation=-90;" parent="1" vertex="1">
          <mxGeometry x="880" y="-80" width="60" height="30" as="geometry" />
        </mxCell>
        <mxCell id="AM9VBK2DPDKisSMMoRg6-22" value="OUTPUT" style="ellipse;whiteSpace=wrap;html=1;" parent="1" vertex="1">
          <mxGeometry x="1310" y="30" width="120" height="80" as="geometry" />
        </mxCell>
        <mxCell id="AM9VBK2DPDKisSMMoRg6-28" value="" style="edgeStyle=orthogonalEdgeStyle;rounded=0;orthogonalLoop=1;jettySize=auto;html=1;" parent="1" source="AM9VBK2DPDKisSMMoRg6-24" target="AM9VBK2DPDKisSMMoRg6-27" edge="1">
          <mxGeometry relative="1" as="geometry" />
        </mxCell>
        <mxCell id="AM9VBK2DPDKisSMMoRg6-24" value="snimac U a I" style="whiteSpace=wrap;html=1;aspect=fixed;" parent="1" vertex="1">
          <mxGeometry x="1110" y="260" width="80" height="80" as="geometry" />
        </mxCell>
        <mxCell id="AM9VBK2DPDKisSMMoRg6-29" style="edgeStyle=orthogonalEdgeStyle;rounded=0;orthogonalLoop=1;jettySize=auto;html=1;entryX=1;entryY=0.5;entryDx=0;entryDy=0;" parent="1" source="AM9VBK2DPDKisSMMoRg6-27" target="8qwPlh9qfdXBfqdP9BY3-1" edge="1">
          <mxGeometry relative="1" as="geometry" />
        </mxCell>
        <mxCell id="AM9VBK2DPDKisSMMoRg6-27" value="ADC" style="whiteSpace=wrap;html=1;aspect=fixed;" parent="1" vertex="1">
          <mxGeometry x="940" y="260" width="80" height="80" as="geometry" />
        </mxCell>
        <mxCell id="AM9VBK2DPDKisSMMoRg6-30" value="I2C" style="text;html=1;align=center;verticalAlign=middle;whiteSpace=wrap;rounded=0;rotation=0;" parent="1" vertex="1">
          <mxGeometry x="630" y="300" width="60" height="30" as="geometry" />
        </mxCell>
        <mxCell id="AM9VBK2DPDKisSMMoRg6-33" style="edgeStyle=orthogonalEdgeStyle;rounded=0;orthogonalLoop=1;jettySize=auto;html=1;entryX=0;entryY=0.25;entryDx=0;entryDy=0;" parent="1" source="AM9VBK2DPDKisSMMoRg6-31" target="AM9VBK2DPDKisSMMoRg6-19" edge="1">
          <mxGeometry relative="1" as="geometry" />
        </mxCell>
        <mxCell id="AM9VBK2DPDKisSMMoRg6-35" style="edgeStyle=orthogonalEdgeStyle;rounded=0;orthogonalLoop=1;jettySize=auto;html=1;entryX=0.5;entryY=0;entryDx=0;entryDy=0;" parent="1" source="AM9VBK2DPDKisSMMoRg6-31" target="AM9VBK2DPDKisSMMoRg6-12" edge="1">
          <mxGeometry relative="1" as="geometry" />
        </mxCell>
        <mxCell id="AM9VBK2DPDKisSMMoRg6-31" value="zdroj 12V to 5&lt;span style=&quot;background-color: initial;&quot;&gt;V&lt;/span&gt;" style="whiteSpace=wrap;html=1;aspect=fixed;" parent="1" vertex="1">
          <mxGeometry x="740" y="-300" width="80" height="80" as="geometry" />
        </mxCell>
        <mxCell id="AM9VBK2DPDKisSMMoRg6-32" value="" style="endArrow=classic;html=1;rounded=0;entryX=0;entryY=0.5;entryDx=0;entryDy=0;" parent="1" target="AM9VBK2DPDKisSMMoRg6-31" edge="1">
          <mxGeometry width="50" height="50" relative="1" as="geometry">
            <mxPoint x="650" y="-120" as="sourcePoint" />
            <mxPoint x="650" y="-220" as="targetPoint" />
            <Array as="points">
              <mxPoint x="650" y="-260" />
            </Array>
          </mxGeometry>
        </mxCell>
        <mxCell id="AM9VBK2DPDKisSMMoRg6-34" value="5V" style="text;html=1;align=center;verticalAlign=middle;whiteSpace=wrap;rounded=0;" parent="1" vertex="1">
          <mxGeometry x="710" y="-220" width="60" height="30" as="geometry" />
        </mxCell>
        <mxCell id="AM9VBK2DPDKisSMMoRg6-36" value="5&lt;span style=&quot;background-color: initial;&quot;&gt;V&lt;/span&gt;" style="text;html=1;align=center;verticalAlign=middle;whiteSpace=wrap;rounded=0;rotation=-90;" parent="1" vertex="1">
          <mxGeometry x="1120" y="-40" width="60" height="30" as="geometry" />
        </mxCell>
        <mxCell id="0CBtYzVkp15g_8uijVB_-1" value="H mustek na veltilÃ¡tory" style="rounded=0;whiteSpace=wrap;html=1;" vertex="1" parent="1">
          <mxGeometry x="290" y="425" width="80" height="70" as="geometry" />
        </mxCell>
        <mxCell id="0CBtYzVkp15g_8uijVB_-3" value="12V" style="text;html=1;align=center;verticalAlign=middle;whiteSpace=wrap;rounded=0;rotation=-90;" vertex="1" parent="1">
          <mxGeometry x="290" y="380" width="60" height="30" as="geometry" />
        </mxCell>
      </root>
    </mxGraphModel>
  </diagram>
</mxfile>
